<mxfile host="app.diagrams.net" modified="2023-10-07T03:55:38.585Z" agent="Mozilla/5.0 (Macintosh; Intel Mac OS X 10_15_7) AppleWebKit/537.36 (KHTML, like Gecko) Chrome/117.0.0.0 Safari/537.36" version="21.7.5" etag="nvCncqYsPXBtXn4H8NJk" type="github">
  <diagram name="第 1 页" id="mw_fZEsPdgpTKNmnc5D4">
    <mxGraphModel>
      <root>
        <mxCell id="0" />
        <mxCell id="1" parent="0" />
      </root>
    </mxGraphModel>
  </diagram>
</mxfile>
